<svg version="1.2" xmlns="http://www.w3.org/2000/svg" viewBox="0 0 1024 1024" width="2048" height="2048"><style>.a{opacity:1;fill:#fefeff}</style><path fill-rule="evenodd" class="a" d="m165 370.2v34.3c185.1 1.1 191.7 1.3 195 2.9 1.9 1 5 3 6.9 4.5 1.9 1.4 4.5 4.9 5.8 7.6 1.6 3.6 2.3 6.9 2.3 11.5 0 5.6-0.4 7.3-3.2 12-1.8 3-5.1 6.7-7.3 8.2-2.2 1.6-5.8 3.3-8 3.8-2.3 0.6-42.7 1-97.8 1h-93.7v56.5c190.9 1.1 197.7 1.3 201 2.9 1.9 1 5 2.9 6.8 4.2 1.7 1.3 4.4 4.5 5.9 7.2 2.2 3.8 2.7 6 2.7 11.2 0 4.7-0.6 7.6-2.1 10.5-1.1 2.2-3.3 5.5-4.9 7.4-1.6 1.8-4.7 4.3-6.9 5.5-4 2.1-4.4 2.1-103.3 2.4l-99.2 0.2v64c218-0.5 219.6-0.6 227-2.6 4.1-1.2 10.2-3.5 13.5-5.2 3.3-1.6 8.7-5 12-7.5 3.3-2.4 8.5-7.5 11.6-11.3 3-3.8 6.5-8.3 7.6-9.9 1.2-1.6 3.7-6.1 5.6-10 1.9-3.9 4.2-9.7 5.1-13 0.9-3.3 1.9-11 2.3-17 0.4-6.9 0.1-13.6-0.6-18-0.7-3.9-2.4-9.9-3.8-13.5-1.4-3.6-4.2-9-6.1-12-1.9-3-5.4-7.7-7.7-10.5-2.4-2.7-6.7-6.9-9.6-9.2-3-2.3-8.8-6.1-13-8.5l-7.7-4.3c7.1-4.6 11.9-8.8 15.3-12.1 3.3-3.4 7.5-8.6 9.2-11.5 1.8-3 4.5-8.3 5.9-11.9 1.4-3.6 3-9.9 3.4-14 0.5-4.1 0.5-12.4 0-18.5-0.5-7.4-1.7-13.6-3.5-19-1.4-4.4-4.5-11.1-6.8-15-2.3-3.9-6.9-9.8-10.2-13.1-3.3-3.4-9.1-8.2-13-10.6-3.9-2.5-9.7-5.7-13-7.1-3.3-1.4-8.7-3.3-12-4.3-5.6-1.7-13.2-1.8-108.7-2.1l-102.7-0.4zm306.9 111.8v146h77v-292h-77zm104.3-98.7c0.5 43.4 0.7 47.9 2.6 55.2 1.1 4.4 3 10.7 4.2 14 1.1 3.3 3.9 9.6 6.1 14 2.2 4.4 6.3 11.2 9.2 15 3 3.9 8.4 10.1 12.2 13.9 3.8 3.8 9.4 8.8 12.4 11.1 3.1 2.3 9.1 6.3 13.5 8.8 4.4 2.6 11 5.9 14.5 7.3 3.6 1.5 11.5 4.1 17.5 5.8 10.5 3 11.1 3.3 11.7 6.1 0.3 1.7 0.7 23.4 0.7 48.3l0.1 45.2h74v-95.5c12.8-3.6 21-6.4 26.5-8.5 5.5-2.2 13.6-6.1 18.1-8.7 4.4-2.6 10.9-7.1 14.5-9.9 3.5-2.8 9.3-8.2 12.9-12 3.5-3.8 8.5-10 11.1-13.9 2.5-3.8 6-9.7 7.7-13 1.6-3.3 4.4-10 6.2-15 1.7-4.9 4.1-13.3 5.2-18.5 1.9-8.6 2.1-13.5 2.5-53.2l0.3-43.8h-72c0 64-0.4 81.8-1 85.5-0.6 3.3-2.6 8.9-4.3 12.5-1.9 3.9-5.7 9-9.7 13-4.8 4.9-8.7 7.7-15 10.8-4.6 2.3-11.4 5-15 6-5 1.3-10.5 1.7-25 1.7-14.6 0-19.8-0.4-25-1.8-3.5-1-9.8-3.4-14-5.5-4.9-2.4-9.7-5.9-14.1-10.2-4.9-4.7-7.7-8.5-10.3-14-2-4.1-4-10.2-4.6-13.5-0.5-3.3-1-23.6-1-45.2v-39.3h-73.2z"/></svg>